<svg version="1.1" id="Layer_1" xmlns="http://www.w3.org/2000/svg" xmlns:xlink="http://www.w3.org/1999/xlink" x="0px" y="0px"
	 width="100%" viewBox="0 0 1080 1080" enable-background="new 0 0 1080 1080" xml:space="preserve">
<path fill="#000000" opacity="1.000000" stroke="none" 
	d="
M570.000000,1081.000000 
	C380.021881,1081.000000 190.543732,1081.000000 1.032801,1081.000000 
	C1.032801,721.063416 1.032801,361.126831 1.032801,1.095114 
	C360.895050,1.095114 720.790100,1.095114 1080.842529,1.095114 
	C1080.842529,360.999939 1080.842529,720.999939 1080.842529,1081.000000 
	C910.793030,1081.000000 740.646545,1081.000000 570.000000,1081.000000 
M632.485229,618.260254 
	C632.248840,618.504456 632.012390,618.748596 631.099365,619.113647 
	C603.192993,634.261169 575.212585,649.275208 547.450684,664.683044 
	C542.626038,667.360718 539.130798,667.163330 534.417786,664.569397 
	C506.464783,649.184753 478.322815,634.143372 449.947601,618.557983 
	C449.635010,618.441895 449.322449,618.325745 448.955750,618.065186 
	C448.955750,618.065186 448.810242,618.116272 448.284485,617.591248 
	C444.510590,616.794617 446.260956,619.791077 446.250031,620.969910 
	C446.122009,634.761230 446.208221,648.554382 446.114624,662.346252 
	C446.103424,663.997498 445.364471,665.643677 444.411926,666.880066 
	C442.599945,665.919800 440.787933,664.959534 438.620544,663.416321 
	C428.364594,657.620972 418.108612,651.825623 407.447815,645.496765 
	C395.949890,639.002075 384.451965,632.507446 372.586395,625.442505 
	C362.356201,619.637878 352.125977,613.833313 341.495636,607.487732 
	C332.315704,602.313599 323.135773,597.139465 313.783264,591.582520 
	C313.605469,591.317505 313.359894,591.215515 312.603729,591.003296 
	C312.434265,590.966370 312.264832,590.929504 311.701935,590.341125 
	C304.927277,586.449890 298.316498,582.225220 291.319733,578.785828 
	C286.738831,576.533936 285.593872,573.579529 285.600708,568.684509 
	C285.778564,440.945068 285.793152,313.205414 285.792389,185.465775 
	C285.792389,183.198227 285.261841,180.930679 284.708191,178.076172 
	C252.142670,156.742920 219.598236,135.377106 186.933594,114.196709 
	C185.642365,113.359436 182.784927,113.616913 181.370148,114.502800 
	C171.357864,120.772064 161.533981,127.342072 151.646286,133.810471 
	C129.089676,148.566681 106.518539,163.300827 84.009979,178.129959 
	C82.894577,178.864807 82.316345,180.415009 80.654572,182.215820 
	C80.553955,183.870651 80.370468,185.525223 80.365074,187.180374 
	C80.274384,215.006149 80.153435,242.831970 80.141281,270.657837 
	C80.078033,415.478149 80.054184,560.298462 79.928162,705.118713 
	C79.925507,708.170288 80.800011,709.803650 83.497299,711.312012 
	C109.915726,726.085022 136.244598,741.018188 162.601562,755.901123 
	C277.877777,820.994141 393.147583,886.098511 508.443573,951.156433 
	C519.254578,957.256775 530.232727,963.060852 541.842712,969.044739 
	C586.029480,944.128967 630.228149,919.234375 674.400696,894.293335 
	C781.869873,833.612915 889.317566,772.894348 996.829102,712.289001 
	C1000.519165,710.208862 1002.142822,708.132874 1002.135315,703.560303 
	C1001.931213,579.101379 1001.941406,454.642090 1001.886414,330.182861 
	C1001.865173,282.200256 1001.731445,234.217606 1001.787231,186.235138 
	C1001.791931,182.187363 1000.650330,179.649323 997.123596,177.363251 
	C965.288635,156.727737 933.543274,135.952988 901.898132,115.027657 
	C898.533142,112.802551 896.391296,113.037491 893.152283,115.189575 
	C871.948792,129.277725 850.551331,143.073502 829.275391,157.053314 
	C818.459717,164.159973 807.765198,171.450974 796.515259,179.403625 
	C796.400879,181.222809 796.190063,183.041824 796.187317,184.861176 
	C796.161865,201.675278 796.167358,218.489426 796.173035,235.303558 
	C796.210510,346.842804 796.232300,458.382111 796.364563,569.921265 
	C796.369202,573.822449 795.418823,576.193542 791.763000,578.121887 
	C784.292175,582.062561 777.143494,586.613892 769.174194,591.051453 
	C759.492920,596.703796 749.811584,602.356140 739.433228,608.174133 
	C730.530212,613.390442 721.627197,618.606812 712.049744,623.984619 
	C703.598999,628.915405 695.148315,633.846191 686.019958,638.956909 
	C679.300232,642.904358 672.580505,646.851807 665.167908,650.957642 
	C657.176392,655.645264 649.184875,660.332947 640.519165,665.141479 
	C639.362244,665.856812 638.205322,666.572144 636.234070,666.854431 
	C636.097595,664.889221 635.847961,662.924377 635.842834,660.958801 
	C635.807922,647.548706 635.863281,634.138184 635.760742,620.728760 
	C635.751160,619.467346 637.109070,615.940308 633.055237,618.073303 
	C633.055237,618.073303 632.999084,618.220154 632.485229,618.260254 
M489.217804,534.763306 
	C475.055511,542.626892 460.893250,550.490540 446.278564,558.605347 
	C447.406586,559.380188 447.903076,559.783508 448.453400,560.090210 
	C478.381409,576.769531 508.289215,593.485779 538.316772,609.984070 
	C539.866089,610.835266 542.813477,610.486206 544.488037,609.565186 
	C573.343872,593.697327 602.102966,577.653748 630.877441,561.638000 
	C632.394897,560.793396 633.859802,559.854431 635.822693,558.674866 
	C604.500977,541.234375 573.868958,524.133972 543.135437,507.217926 
	C541.840271,506.505066 539.317749,506.987488 537.845276,507.790314 
	C521.786560,516.546204 505.823395,525.477173 489.217804,534.763306 
M569.888855,631.324097 
	C592.159058,618.936584 614.429260,606.549133 636.699524,594.161682 
	C636.364014,593.521423 636.028503,592.881226 635.692993,592.241028 
	C634.308899,592.869629 632.872742,593.404602 631.548401,594.140686 
	C602.794556,610.121521 574.023621,626.072388 545.351624,642.199158 
	C542.221497,643.959656 539.958618,644.074707 536.758606,642.272583 
	C508.095581,626.129944 479.322662,610.182312 450.563385,594.210999 
	C449.180359,593.442932 447.622681,592.989441 446.146332,592.389404 
	C445.931305,592.813965 445.716278,593.238525 445.501282,593.663086 
	C446.456482,594.410522 447.332001,595.300842 448.378510,595.884583 
	C478.125610,612.475830 507.862915,629.085449 537.720703,645.475586 
	C539.454773,646.427429 542.582581,646.326782 544.390991,645.402954 
	C552.814819,641.099548 561.002625,636.334045 569.888855,631.324097 
M534.846802,651.693481 
	C505.389587,635.308777 475.932404,618.924072 446.475189,602.539368 
	C446.133820,603.087708 445.792450,603.636108 445.451050,604.184448 
	C446.521027,605.000671 447.509338,605.963562 448.672882,606.611694 
	C478.423981,623.184143 508.170807,639.764832 538.022888,656.153870 
	C539.603699,657.021729 542.510315,656.964905 544.111328,656.085388 
	C573.958374,639.687561 603.704407,623.105652 633.451843,606.526978 
	C634.568237,605.904663 635.484741,604.923767 636.494385,604.109985 
	C636.238098,603.681580 635.981750,603.253174 635.725464,602.824768 
	C634.327515,603.468689 632.880737,604.024658 631.538879,604.769592 
	C603.210144,620.496399 574.841064,636.152039 546.631836,652.090698 
	C542.534729,654.405640 539.204285,655.243958 534.846802,651.693481 
M522.767334,623.792480 
	C497.275787,609.843384 472.093994,595.312317 445.989838,582.441406 
	C446.670135,584.085876 447.769531,585.010742 449.001770,585.697205 
	C478.618134,602.196838 508.226013,618.712280 537.939392,635.035767 
	C539.541382,635.915833 542.471008,635.909912 544.075134,635.028687 
	C573.788269,618.704712 603.397827,602.191833 633.008484,585.681763 
	C634.288086,584.968323 635.369812,583.899963 636.543701,582.996948 
	C636.307312,582.599426 636.070923,582.201904 635.834534,581.804382 
	C634.546448,582.313965 633.182556,582.686890 631.981506,583.353455 
	C607.426819,596.980591 582.897888,610.654175 558.345581,624.285767 
	C552.550964,627.502991 546.677612,633.084656 540.863037,633.055786 
	C535.031921,633.026672 529.228882,627.346069 522.767334,623.792480 
M524.656799,614.777466 
	C528.869629,617.122742 533.170349,619.326416 537.263000,621.865356 
	C539.796265,623.437012 541.784058,623.541199 544.508423,622.011047 
	C573.769043,605.577271 603.120422,589.305176 632.429932,572.958435 
	C633.906006,572.135193 635.226990,571.033752 636.620178,570.061890 
	C636.391296,569.635132 636.162354,569.208374 635.933411,568.781616 
	C634.226624,569.508972 632.438843,570.090271 630.825134,570.985413 
	C602.358215,586.775818 573.878113,602.543335 545.508606,618.507263 
	C542.195251,620.371765 539.813965,620.378418 536.496460,618.511475 
	C508.127686,602.546204 479.647369,586.778992 451.180786,570.987976 
	C449.571259,570.095154 447.789185,569.513367 446.087433,568.786743 
	C445.792999,569.364990 445.498566,569.943237 445.204163,570.521423 
	C471.489716,585.128723 497.775238,599.736023 524.656799,614.777466 
z"/>
<path fill="#FCBE15" opacity="1.000000" stroke="none" 
	d="
M797.015930,178.658630 
	C807.765198,171.450974 818.459717,164.159973 829.275391,157.053314 
	C850.551331,143.073502 871.948792,129.277725 893.152283,115.189575 
	C896.391296,113.037491 898.533142,112.802551 901.898132,115.027657 
	C933.543274,135.952988 965.288635,156.727737 997.123596,177.363251 
	C1000.650330,179.649323 1001.791931,182.187363 1001.787231,186.235138 
	C1001.731445,234.217606 1001.865173,282.200256 1001.886414,330.182861 
	C1001.941406,454.642090 1001.931213,579.101379 1002.135315,703.560303 
	C1002.142822,708.132874 1000.519165,710.208862 996.829102,712.289001 
	C889.317566,772.894348 781.869873,833.612915 674.400696,894.293335 
	C630.228149,919.234375 586.029480,944.128967 541.433960,968.557678 
	C541.017212,926.245117 540.972229,884.419617 541.073853,842.594360 
	C541.081665,839.383057 540.235291,837.548401 537.338257,835.910889 
	C520.527161,826.408630 503.820465,816.720154 487.134735,806.998047 
	C473.636688,799.133240 460.218048,791.132202 446.823547,782.718811 
	C446.916687,780.414917 446.977875,778.583923 446.980103,776.752747 
	C447.042419,725.960327 447.079163,675.167908 447.225677,624.375732 
	C447.231689,622.287781 448.258850,620.202698 448.810242,618.116272 
	C448.810242,618.116272 448.955750,618.065186 449.117188,618.358887 
	C449.600525,618.763855 449.922485,618.875183 450.244385,618.986572 
	C478.322815,634.143372 506.464783,649.184753 534.417786,664.569397 
	C539.130798,667.163330 542.626038,667.360718 547.450684,664.683044 
	C575.212585,649.275208 603.192993,634.261169 631.696228,619.021729 
	C632.528381,618.693237 632.763733,618.456665 632.999084,618.220154 
	C632.999084,618.220154 633.055237,618.073303 633.461670,618.267090 
	C634.189880,620.518127 634.788574,622.574768 634.792969,624.632690 
	C634.901550,675.313965 634.946167,725.995300 635.008484,776.676636 
	C635.010315,778.170471 634.961853,779.683289 635.198853,781.144775 
	C635.259949,781.521118 636.318420,781.735718 637.224731,781.851440 
	C638.814941,780.913879 640.088318,780.130859 641.384888,779.388306 
	C652.421936,773.067505 663.484802,766.791504 674.497070,760.427979 
	C685.792480,753.900757 697.087830,747.370728 708.286133,740.679504 
	C713.315063,737.674561 718.107788,734.274353 723.373535,731.018921 
	C729.161560,727.984985 734.583740,724.985657 740.317444,721.836792 
	C747.085205,717.792358 753.541504,713.897400 760.339417,709.923645 
	C767.803467,705.575073 774.925842,701.305237 782.349792,696.875183 
	C789.795776,692.503113 796.940247,688.291199 804.427429,683.997192 
	C812.532959,679.330627 820.295654,674.746277 828.400452,670.064941 
	C838.195312,664.383728 847.648071,658.799438 857.441650,653.114685 
	C867.907715,647.040588 878.033081,641.066956 888.493774,635.009399 
	C891.586609,633.289001 894.344238,631.652466 897.328613,629.671021 
	C897.712341,627.681274 898.006470,626.036438 898.006653,624.391602 
	C898.019287,501.155518 898.013855,377.919434 897.952209,254.683395 
	C897.951233,252.785980 897.234070,250.888931 896.558777,248.830826 
	C893.392761,246.430847 890.626404,244.035233 887.627380,241.979019 
	C872.342773,231.499527 856.975403,221.140762 841.680969,210.675537 
	C827.756226,201.147552 813.887695,191.537338 799.989624,181.621475 
	C798.995178,180.405960 798.005554,179.532288 797.015930,178.658630 
z"/>
<path fill="#FFFFFF" opacity="1.000000" stroke="none" 
	d="
M446.764160,783.191589 
	C460.218048,791.132202 473.636688,799.133240 487.134735,806.998047 
	C503.820465,816.720154 520.527161,826.408630 537.338257,835.910889 
	C540.235291,837.548401 541.081665,839.383057 541.073853,842.594360 
	C540.972229,884.419617 541.017212,926.245117 541.079224,968.536560 
	C530.232727,963.060852 519.254578,957.256775 508.443573,951.156433 
	C393.147583,886.098511 277.877777,820.994141 162.601562,755.901123 
	C136.244598,741.018188 109.915726,726.085022 83.497299,711.312012 
	C80.800011,709.803650 79.925507,708.170288 79.928162,705.118713 
	C80.054184,560.298462 80.078033,415.478149 80.141281,270.657837 
	C80.153435,242.831970 80.274384,215.006149 80.365074,187.180374 
	C80.370468,185.525223 80.553955,183.870651 81.188515,182.170151 
	C96.129356,191.557236 110.506470,201.035873 124.950546,210.411362 
	C143.842560,222.673950 162.787476,234.854996 181.911011,247.368362 
	C182.561646,247.780914 183.010925,247.896225 183.466125,248.023010 
	C183.472076,248.034485 183.496735,248.042191 183.599731,248.501831 
	C183.823639,251.281891 184.050705,253.602325 184.050217,255.922745 
	C184.023987,378.410126 183.974716,500.897491 183.964584,623.384888 
	C183.964401,625.659851 184.405457,627.934753 184.864471,630.474854 
	C188.323975,632.520996 191.559647,634.302124 194.990662,636.371094 
	C205.423889,642.518616 215.661743,648.378174 226.098724,654.508911 
	C236.483475,660.645630 246.669113,666.511230 257.075745,672.624695 
	C268.872772,679.525085 280.448822,686.177551 292.294403,693.046448 
	C302.721466,699.129578 312.878998,704.996338 323.276001,711.110962 
	C329.686859,714.875488 335.858154,718.392151 342.268738,722.154053 
	C348.021942,725.541321 353.535858,728.683472 359.307556,732.055420 
	C388.080383,748.854187 416.595490,765.423157 445.258606,782.211792 
	C445.859161,782.684875 446.311676,782.938232 446.764160,783.191589 
z"/>
<path fill="#FABD15" opacity="1.000000" stroke="none" 
	d="
M181.709641,247.071136 
	C162.787476,234.854996 143.842560,222.673950 124.950546,210.411362 
	C110.506470,201.035873 96.129356,191.557236 81.605225,181.855011 
	C82.316345,180.415009 82.894577,178.864807 84.009979,178.129959 
	C106.518539,163.300827 129.089676,148.566681 151.646286,133.810471 
	C161.533981,127.342072 171.357864,120.772064 181.370148,114.502800 
	C182.784927,113.616913 185.642365,113.359436 186.933594,114.196709 
	C219.598236,135.377106 252.142670,156.742920 284.540070,178.496918 
	C283.586304,179.603333 282.800690,180.289017 281.733856,181.163239 
	C277.892731,184.042969 274.407349,186.840088 270.759827,189.406769 
	C255.974030,199.811142 241.174759,210.197250 226.310303,220.488785 
	C212.950775,229.738358 199.499481,238.855377 185.657257,247.992432 
	C184.649460,247.983383 184.073105,248.012787 183.496735,248.042191 
	C183.496735,248.042191 183.472076,248.034485 183.250092,247.743347 
	C182.588608,247.325195 182.149124,247.198166 181.709641,247.071136 
z"/>
<path fill="#FBBE16" opacity="1.000000" stroke="none" 
	d="
M489.526001,534.561890 
	C505.823395,525.477173 521.786560,516.546204 537.845276,507.790314 
	C539.317749,506.987488 541.840271,506.505066 543.135437,507.217926 
	C573.868958,524.133972 604.500977,541.234375 635.822693,558.674866 
	C633.859802,559.854431 632.394897,560.793396 630.877441,561.638000 
	C602.102966,577.653748 573.343872,593.697327 544.488037,609.565186 
	C542.813477,610.486206 539.866089,610.835266 538.316772,609.984070 
	C508.289215,593.485779 478.381409,576.769531 448.453400,560.090210 
	C447.903076,559.783508 447.406586,559.380188 446.278564,558.605347 
	C460.893250,550.490540 475.055511,542.626892 489.526001,534.561890 
z"/>
<path fill="#9D772D" opacity="1.000000" stroke="none" 
	d="
M282.015076,180.974701 
	C282.800690,180.289017 283.586304,179.603333 284.675385,178.790390 
	C285.261841,180.930679 285.792389,183.198227 285.792389,185.465775 
	C285.793152,313.205414 285.778564,440.945068 285.600708,568.684509 
	C285.593872,573.579529 286.738831,576.533936 291.319733,578.785828 
	C298.316498,582.225220 304.927277,586.449890 311.623657,590.853821 
	C310.634888,591.764587 309.739105,592.201233 308.811798,592.555298 
	C270.808044,607.069214 232.801514,621.575745 194.795319,636.083252 
	C191.559647,634.302124 188.323975,632.520996 184.936554,629.998352 
	C184.877945,608.828918 184.971115,588.401001 185.445648,567.958130 
	C191.926086,565.781921 198.067596,563.732727 204.116898,561.440186 
	C229.752747,551.724792 255.347763,541.901550 280.999146,532.227600 
	C283.730682,531.197449 285.012665,529.794250 284.968750,526.800476 
	C284.802917,515.495422 284.799988,504.187958 284.776520,492.424866 
	C284.777588,481.287140 284.738220,470.606018 284.738892,459.463440 
	C284.745636,449.643372 284.712341,440.284698 284.718231,430.464478 
	C284.730865,420.646515 284.704315,411.290070 284.712402,401.471008 
	C284.727539,393.987640 284.708008,386.966980 284.721832,379.482544 
	C284.740082,371.326416 284.725006,363.634033 284.741150,355.477905 
	C284.794922,298.298279 284.817505,241.582397 284.839050,184.866516 
	C284.839355,184.035004 285.158569,182.908615 284.742767,182.440247 
	C284.099487,181.715622 282.949951,181.440460 282.015076,180.974701 
z"/>
<path fill="#9D772D" opacity="1.000000" stroke="none" 
	d="
M897.101868,630.015991 
	C894.344238,631.652466 891.586609,633.289001 888.130615,634.914734 
	C885.012146,633.811646 882.641724,632.588684 880.164368,631.646851 
	C850.486938,620.365479 820.815735,609.067078 791.088257,597.918640 
	C784.117554,595.304443 776.942932,593.234131 769.862122,590.913696 
	C777.143494,586.613892 784.292175,582.062561 791.763000,578.121887 
	C795.418823,576.193542 796.369202,573.822449 796.364563,569.921265 
	C796.232300,458.382111 796.210510,346.842804 796.173035,235.303558 
	C796.167358,218.489426 796.161865,201.675278 796.187317,184.861176 
	C796.190063,183.041824 796.400879,181.222809 796.765625,179.031128 
	C798.005554,179.532288 798.995178,180.405960 799.689941,181.522156 
	C795.959167,179.329865 797.220520,182.744110 797.220093,183.713470 
	C797.196533,238.469147 797.245667,293.224854 797.244873,348.440338 
	C797.232605,352.587738 797.263000,356.275360 797.249023,360.431580 
	C797.240234,367.579193 797.275696,374.258209 797.264343,381.407227 
	C797.248901,388.566345 797.280273,395.255524 797.260742,402.415222 
	C797.245911,411.905121 797.281860,420.924500 797.271362,430.413574 
	C797.251221,440.557800 797.277527,450.232330 797.257141,460.378967 
	C797.229126,471.860870 797.247803,482.870728 797.220581,494.354523 
	C797.139160,505.797638 797.236511,516.769714 796.992859,527.734253 
	C796.912109,531.367798 798.293884,532.892578 801.626892,534.143005 
	C829.301086,544.525757 856.877380,555.169495 884.533447,565.601135 
	C888.520020,567.104858 892.774292,567.898865 896.931152,569.488037 
	C897.005615,589.975098 897.053711,609.995544 897.101868,630.015991 
z"/>
<path fill="#C29227" opacity="1.000000" stroke="none" 
	d="
M292.024872,692.830078 
	C280.448822,686.177551 268.872772,679.525085 257.258545,672.300537 
	C258.743927,670.786255 260.162964,669.570129 261.806671,668.942688 
	C290.697968,657.914429 319.633698,647.002563 348.518738,635.958008 
	C356.730804,632.817993 364.812561,629.337280 372.954041,626.012817 
	C384.451965,632.507446 395.949890,639.002075 407.313660,645.853516 
	C392.637543,651.908752 378.128784,657.694031 363.545776,663.285706 
	C341.348114,671.797058 319.079651,680.124146 296.906586,688.698364 
	C295.027771,689.424988 293.640472,691.422791 292.024872,692.830078 
z"/>
<path fill="#B4872A" opacity="1.000000" stroke="none" 
	d="
M372.770203,625.727661 
	C364.812561,629.337280 356.730804,632.817993 348.518738,635.958008 
	C319.633698,647.002563 290.697968,657.914429 261.806671,668.942688 
	C260.162964,669.570129 258.743927,670.786255 257.037537,672.052612 
	C246.669113,666.511230 236.483475,660.645630 226.290680,654.199585 
	C227.854584,652.746826 229.346786,651.668213 231.008453,651.032776 
	C260.313080,639.827759 289.655518,628.721375 318.947632,617.484009 
	C326.669678,614.521606 334.250244,611.190491 341.895752,608.028687 
	C352.125977,613.833313 362.356201,619.637878 372.770203,625.727661 
z"/>
<path fill="#D39F25" opacity="1.000000" stroke="none" 
	d="
M292.294403,693.046448 
	C293.640472,691.422791 295.027771,689.424988 296.906586,688.698364 
	C319.079651,680.124146 341.348114,671.797058 363.545776,663.285706 
	C378.128784,657.694031 392.637543,651.908752 407.516083,646.120239 
	C418.108612,651.825623 428.364594,657.620972 438.444824,663.787781 
	C435.975159,665.116882 433.706696,666.141846 431.383484,667.022217 
	C396.787506,680.132690 362.169830,693.186523 327.622925,706.424866 
	C325.795502,707.125061 324.551880,709.348633 323.036499,710.863098 
	C312.878998,704.996338 302.721466,699.129578 292.294403,693.046448 
z"/>
<path fill="#A87F2B" opacity="1.000000" stroke="none" 
	d="
M769.518188,590.982544 
	C776.942932,593.234131 784.117554,595.304443 791.088257,597.918640 
	C820.815735,609.067078 850.486938,620.365479 880.164368,631.646851 
	C882.641724,632.588684 885.012146,633.811646 887.795349,634.998596 
	C878.033081,641.066956 867.907715,647.040588 857.201965,652.838257 
	C854.862549,651.757263 853.171265,650.674744 851.334290,649.974182 
	C824.988770,639.926086 798.632629,629.905884 772.258972,619.932068 
	C761.574463,615.891357 750.841309,611.979126 740.130310,608.008484 
	C749.811584,602.356140 759.492920,596.703796 769.518188,590.982544 
z"/>
<path fill="#A87F2B" opacity="1.000000" stroke="none" 
	d="
M341.695709,607.758179 
	C334.250244,611.190491 326.669678,614.521606 318.947632,617.484009 
	C289.655518,628.721375 260.313080,639.827759 231.008453,651.032776 
	C229.346786,651.668213 227.854584,652.746826 226.091568,653.928467 
	C215.661743,648.378174 205.423889,642.518616 194.990677,636.371094 
	C232.801514,621.575745 270.808044,607.069214 308.811798,592.555298 
	C309.739105,592.201233 310.634888,591.764587 311.820374,591.129517 
	C312.264832,590.929504 312.434265,590.966370 312.948914,591.288940 
	C313.483643,591.757385 313.704193,591.887634 313.955811,591.965332 
	C323.135773,597.139465 332.315704,602.313599 341.695709,607.758179 
z"/>
<path fill="#B4872A" opacity="1.000000" stroke="none" 
	d="
M739.781738,608.091309 
	C750.841309,611.979126 761.574463,615.891357 772.258972,619.932068 
	C798.632629,629.905884 824.988770,639.926086 851.334290,649.974182 
	C853.171265,650.674744 854.862549,651.757263 856.861206,652.938721 
	C847.648071,658.799438 838.195312,664.383728 828.210571,669.756592 
	C826.128845,668.643677 824.668640,667.507507 823.015686,666.875916 
	C796.816406,656.864929 770.557251,647.009705 744.391052,636.913513 
	C733.737915,632.802917 723.274109,628.201355 712.724182,623.823120 
	C721.627197,618.606812 730.530212,613.390442 739.781738,608.091309 
z"/>
<path fill="#C09028" opacity="1.000000" stroke="none" 
	d="
M712.386963,623.903870 
	C723.274109,628.201355 733.737915,632.802917 744.391052,636.913513 
	C770.557251,647.009705 796.816406,656.864929 823.015686,666.875916 
	C824.668640,667.507507 826.128845,668.643677 827.868530,669.853516 
	C820.295654,674.746277 812.532959,679.330627 804.099548,683.826660 
	C779.678772,674.679688 755.911011,665.666809 732.184814,656.546021 
	C716.990784,650.705322 701.857910,644.705505 686.697632,638.776978 
	C695.148315,633.846191 703.598999,628.915405 712.386963,623.903870 
z"/>
<path fill="#D5A124" opacity="1.000000" stroke="none" 
	d="
M782.048218,697.035400 
	C774.925842,701.305237 767.803467,705.575073 759.979675,709.853516 
	C732.633545,699.671997 705.999756,689.453003 679.339233,679.304382 
	C666.650208,674.474060 653.910278,669.777649 641.193359,665.020569 
	C649.184875,660.332947 657.176392,655.645264 665.640137,651.219727 
	C667.280884,652.333862 668.331665,653.492676 669.635254,653.992432 
	C691.090149,662.217407 712.588623,670.328491 734.052490,678.530029 
	C750.069458,684.650330 766.050964,690.863586 782.048218,697.035400 
z"/>
<path fill="#CB9826" opacity="1.000000" stroke="none" 
	d="
M782.349792,696.875183 
	C766.050964,690.863586 750.069458,684.650330 734.052490,678.530029 
	C712.588623,670.328491 691.090149,662.217407 669.635254,653.992432 
	C668.331665,653.492676 667.280884,652.333862 665.986572,651.140503 
	C672.580505,646.851807 679.300232,642.904358 686.358765,638.866943 
	C701.857910,644.705505 716.990784,650.705322 732.184814,656.546021 
	C755.911011,665.666809 779.678772,674.679688 803.756775,683.908813 
	C796.940247,688.291199 789.795776,692.503113 782.349792,696.875183 
z"/>
<path fill="#E1AA1F" opacity="1.000000" stroke="none" 
	d="
M323.276001,711.110962 
	C324.551880,709.348633 325.795502,707.125061 327.622925,706.424866 
	C362.169830,693.186523 396.787506,680.132690 431.383484,667.022217 
	C433.706696,666.141846 435.975159,665.116882 438.622528,664.079224 
	C440.787933,664.959534 442.599945,665.919800 444.869629,667.442993 
	C445.541138,672.342224 445.754913,676.678406 445.585571,681.033997 
	C444.710144,681.133179 444.187347,681.132019 443.729919,681.304382 
	C410.898743,693.678101 378.064026,706.042786 345.277863,718.534851 
	C343.958130,719.037659 343.101746,720.756531 342.029480,721.908813 
	C335.858154,718.392151 329.686859,714.875488 323.276001,711.110962 
z"/>
<path fill="#E1AA1F" opacity="1.000000" stroke="none" 
	d="
M640.856262,665.081055 
	C653.910278,669.777649 666.650208,674.474060 679.339233,679.304382 
	C705.999756,689.453003 732.633545,699.671997 759.638000,709.932251 
	C753.541504,713.897400 747.085205,717.792358 740.281128,721.475830 
	C738.590393,720.218689 737.401733,718.772949 735.881653,718.187012 
	C710.766418,708.507019 685.635498,698.866028 660.446716,689.379333 
	C652.400146,686.348755 644.175354,683.791321 636.024414,680.556519 
	C636.360657,675.826294 636.704590,671.556946 637.048462,667.287537 
	C638.205322,666.572144 639.362244,665.856812 640.856262,665.081055 
z"/>
<path fill="#D7A930" opacity="1.000000" stroke="none" 
	d="
M569.581909,631.528931 
	C561.002625,636.334045 552.814819,641.099548 544.390991,645.402954 
	C542.582581,646.326782 539.454773,646.427429 537.720703,645.475586 
	C507.862915,629.085449 478.125610,612.475830 448.378510,595.884583 
	C447.332001,595.300842 446.456482,594.410522 445.501282,593.663086 
	C445.716278,593.238525 445.931305,592.813965 446.146332,592.389404 
	C447.622681,592.989441 449.180359,593.442932 450.563385,594.210999 
	C479.322662,610.182312 508.095581,626.129944 536.758606,642.272583 
	C539.958618,644.074707 542.221497,643.959656 545.351624,642.199158 
	C574.023621,626.072388 602.794556,610.121521 631.548401,594.140686 
	C632.872742,593.404602 634.308899,592.869629 635.692993,592.241028 
	C636.028503,592.881226 636.364014,593.521423 636.699524,594.161682 
	C614.429260,606.549133 592.159058,618.936584 569.581909,631.528931 
z"/>
<path fill="#D7A930" opacity="1.000000" stroke="none" 
	d="
M535.174622,651.860352 
	C539.204285,655.243958 542.534729,654.405640 546.631836,652.090698 
	C574.841064,636.152039 603.210144,620.496399 631.538879,604.769592 
	C632.880737,604.024658 634.327515,603.468689 635.725464,602.824768 
	C635.981750,603.253174 636.238098,603.681580 636.494385,604.109985 
	C635.484741,604.923767 634.568237,605.904663 633.451843,606.526978 
	C603.704407,623.105652 573.958374,639.687561 544.111328,656.085388 
	C542.510315,656.964905 539.603699,657.021729 538.022888,656.153870 
	C508.170807,639.764832 478.423981,623.184143 448.672882,606.611694 
	C447.509338,605.963562 446.521027,605.000671 445.451050,604.184448 
	C445.792450,603.636108 446.133820,603.087708 446.475189,602.539368 
	C475.932404,618.924072 505.389587,635.308777 535.174622,651.860352 
z"/>
<path fill="#D7A930" opacity="1.000000" stroke="none" 
	d="
M523.090454,623.967407 
	C529.228882,627.346069 535.031921,633.026672 540.863037,633.055786 
	C546.677612,633.084656 552.550964,627.502991 558.345581,624.285767 
	C582.897888,610.654175 607.426819,596.980591 631.981506,583.353455 
	C633.182556,582.686890 634.546448,582.313965 635.834534,581.804382 
	C636.070923,582.201904 636.307312,582.599426 636.543701,582.996948 
	C635.369812,583.899963 634.288086,584.968323 633.008484,585.681763 
	C603.397827,602.191833 573.788269,618.704712 544.075134,635.028687 
	C542.471008,635.909912 539.541382,635.915833 537.939392,635.035767 
	C508.226013,618.712280 478.618134,602.196838 449.001770,585.697205 
	C447.769531,585.010742 446.670135,584.085876 445.989838,582.441406 
	C472.093994,595.312317 497.275787,609.843384 523.090454,623.967407 
z"/>
<path fill="#D7A930" opacity="1.000000" stroke="none" 
	d="
M524.358765,614.560425 
	C497.775238,599.736023 471.489716,585.128723 445.204163,570.521423 
	C445.498566,569.943237 445.792999,569.364990 446.087433,568.786743 
	C447.789185,569.513367 449.571259,570.095154 451.180786,570.987976 
	C479.647369,586.778992 508.127686,602.546204 536.496460,618.511475 
	C539.813965,620.378418 542.195251,620.371765 545.508606,618.507263 
	C573.878113,602.543335 602.358215,586.775818 630.825134,570.985413 
	C632.438843,570.090271 634.226624,569.508972 635.933411,568.781616 
	C636.162354,569.208374 636.391296,569.635132 636.620178,570.061890 
	C635.226990,571.033752 633.906006,572.135193 632.429932,572.958435 
	C603.120422,589.305176 573.769043,605.577271 544.508423,622.011047 
	C541.784058,623.541199 539.796265,623.437012 537.263000,621.865356 
	C533.170349,619.326416 528.869629,617.122742 524.358765,614.560425 
z"/>
<path fill="#D7A930" opacity="1.000000" stroke="none" 
	d="
M445.968719,681.014648 
	C445.754913,676.678406 445.541138,672.342224 445.145081,667.649109 
	C445.364471,665.643677 446.103424,663.997498 446.114624,662.346252 
	C446.208221,648.554382 446.122009,634.761230 446.250031,620.969910 
	C446.260956,619.791077 444.510590,616.794617 448.547363,617.853760 
	C448.258850,620.202698 447.231689,622.287781 447.225677,624.375732 
	C447.079163,675.167908 447.042419,725.960327 446.980103,776.752747 
	C446.977875,778.583923 446.916687,780.414917 446.823547,782.718811 
	C446.311676,782.938232 445.859161,782.684875 445.479431,781.864197 
	C445.706146,779.819702 445.993713,778.342529 445.994202,776.865295 
	C446.003174,750.581604 445.977234,724.297974 445.974670,697.545471 
	C445.983276,691.722656 445.976013,686.368652 445.968719,681.014648 
z"/>
<path fill="#D7A930" opacity="1.000000" stroke="none" 
	d="
M636.641235,667.070984 
	C636.704590,671.556946 636.360657,675.826294 636.018311,681.022217 
	C636.027039,687.304565 636.034302,692.660339 636.033325,698.483765 
	C636.013000,724.879883 635.982605,750.808472 636.028687,776.736816 
	C636.031799,778.499939 636.608704,780.262085 636.918701,782.024658 
	C636.318420,781.735718 635.259949,781.521118 635.198853,781.144775 
	C634.961853,779.683289 635.010315,778.170471 635.008484,776.676636 
	C634.946167,725.995300 634.901550,675.313965 634.792969,624.632690 
	C634.788574,622.574768 634.189880,620.518127 633.535889,618.293213 
	C637.109070,615.940308 635.751160,619.467346 635.760742,620.728760 
	C635.863281,634.138184 635.807922,647.548706 635.842834,660.958801 
	C635.847961,662.924377 636.097595,664.889221 636.641235,667.070984 
z"/>
<path fill="#9D772D" opacity="1.000000" stroke="none" 
	d="
M313.869537,591.773926 
	C313.704193,591.887634 313.483643,591.757385 313.170319,591.425537 
	C313.359894,591.215515 313.605469,591.317505 313.869537,591.773926 
z"/>
<path fill="#D7A930" opacity="1.000000" stroke="none" 
	d="
M632.742188,618.240234 
	C632.763733,618.456665 632.528381,618.693237 632.034546,618.961304 
	C632.012390,618.748596 632.248840,618.504456 632.742188,618.240234 
z"/>
<path fill="#D7A930" opacity="1.000000" stroke="none" 
	d="
M450.096008,618.772217 
	C449.922485,618.875183 449.600525,618.763855 449.144226,618.431030 
	C449.322449,618.325745 449.635010,618.441895 450.096008,618.772217 
z"/>
<path fill="#FEBF14" opacity="1.000000" stroke="none" 
	d="
M797.287476,347.980560 
	C797.245667,293.224854 797.196533,238.469147 797.220093,183.713470 
	C797.220520,182.744110 795.959167,179.329865 799.694824,181.864014 
	C813.887695,191.537338 827.756226,201.147552 841.680969,210.675537 
	C856.975403,221.140762 872.342773,231.499527 887.627380,241.979019 
	C890.626404,244.035233 893.392761,246.430847 896.605225,249.298950 
	C896.940063,294.616394 896.936096,339.304810 896.552856,383.971069 
	C894.098877,383.346405 891.971191,382.883759 889.957642,382.120056 
	C865.215210,372.735901 840.512939,363.245117 815.742493,353.935760 
	C809.698547,351.664215 803.444824,349.950653 797.287476,347.980560 
z"/>
<path fill="#F7BB14" opacity="1.000000" stroke="none" 
	d="
M637.224731,781.851440 
	C636.608704,780.262085 636.031799,778.499939 636.028687,776.736816 
	C635.982605,750.808472 636.013000,724.879883 636.427734,698.485046 
	C638.757568,698.478455 640.760742,698.736511 642.600586,699.428711 
	C664.505859,707.669922 686.411316,715.911743 708.255432,724.312866 
	C713.292053,726.249878 718.096436,728.790588 723.007690,731.053467 
	C718.107788,734.274353 713.315063,737.674561 708.286133,740.679504 
	C697.087830,747.370728 685.792480,753.900757 674.497070,760.427979 
	C663.484802,766.791504 652.421936,773.067505 641.384888,779.388306 
	C640.088318,780.130859 638.814941,780.913879 637.224731,781.851440 
z"/>
<path fill="#DFA824" opacity="1.000000" stroke="none" 
	d="
M896.932129,383.993225 
	C896.936096,339.304810 896.940063,294.616394 896.897583,249.459839 
	C897.234070,250.888931 897.951233,252.785980 897.952209,254.683395 
	C898.013855,377.919434 898.019287,501.155518 898.006653,624.391602 
	C898.006470,626.036438 897.712341,627.681274 897.328613,629.671021 
	C897.053711,609.995544 897.005615,589.975098 896.973083,569.018677 
	C896.970459,555.395508 896.952332,542.708191 896.964783,529.551025 
	C896.981567,518.391418 896.967712,507.701752 896.973816,496.542633 
	C896.986877,486.386047 896.979919,476.698914 896.984009,466.542023 
	C896.995789,459.263123 896.708435,452.437439 897.097839,445.650574 
	C897.361694,441.050598 895.971008,438.549469 891.351440,437.492523 
	C888.148865,436.759796 885.138611,435.193573 882.035339,434.018463 
	C853.794983,423.324890 825.553040,412.635376 797.311584,401.944702 
	C797.280273,395.255524 797.248901,388.566345 797.636597,381.430603 
	C798.873596,381.118683 799.742310,381.119568 800.501892,381.407867 
	C814.954956,386.893799 829.390015,392.427063 843.839417,397.922729 
	C859.687012,403.950226 875.530579,409.989105 891.408264,415.936646 
	C896.105225,417.696106 896.918640,417.050507 896.972595,411.945557 
	C897.025330,406.954926 896.960693,401.963013 896.958252,396.511475 
	C896.956604,392.031952 896.944397,388.012573 896.932129,383.993225 
z"/>
<path fill="#EEB21B" opacity="1.000000" stroke="none" 
	d="
M723.373535,731.018921 
	C718.096436,728.790588 713.292053,726.249878 708.255432,724.312866 
	C686.411316,715.911743 664.505859,707.669922 642.600586,699.428711 
	C640.760742,698.736511 638.757568,698.478455 636.435913,698.017456 
	C636.034302,692.660339 636.027039,687.304565 636.026001,681.483032 
	C644.175354,683.791321 652.400146,686.348755 660.446716,689.379333 
	C685.635498,698.866028 710.766418,708.507019 735.881653,718.187012 
	C737.401733,718.772949 738.590393,720.218689 739.969604,721.625366 
	C734.583740,724.985657 729.161560,727.984985 723.373535,731.018921 
z"/>
<path fill="#F7BB14" opacity="1.000000" stroke="none" 
	d="
M445.958832,698.014282 
	C445.977234,724.297974 446.003174,750.581604 445.994202,776.865295 
	C445.993713,778.342529 445.706146,779.819702 445.331421,781.644531 
	C416.595490,765.423157 388.080383,748.854187 359.412354,731.738525 
	C360.912231,730.158813 362.449585,728.825623 364.235504,728.138245 
	C385.166687,720.082520 406.109314,712.054749 427.109802,704.182007 
	C433.294342,701.863464 439.670471,700.055969 445.958832,698.014282 
z"/>
<path fill="#EEB21B" opacity="1.000000" stroke="none" 
	d="
M445.974670,697.545410 
	C439.670471,700.055969 433.294342,701.863464 427.109802,704.182007 
	C406.109314,712.054749 385.166687,720.082520 364.235504,728.138245 
	C362.449585,728.825623 360.912231,730.158813 359.154572,731.508789 
	C353.535858,728.683472 348.021942,725.541321 342.268738,722.154053 
	C343.101746,720.756531 343.958130,719.037659 345.277863,718.534851 
	C378.064026,706.042786 410.898743,693.678101 443.729919,681.304382 
	C444.187347,681.132019 444.710144,681.133179 445.585571,681.033997 
	C445.976013,686.368652 445.983276,691.722656 445.974670,697.545410 
z"/>
<path fill="#CFB37D" opacity="1.000000" stroke="none" 
	d="
M185.064285,567.973145 
	C184.971115,588.401001 184.877945,608.828918 184.712708,629.733276 
	C184.405457,627.934753 183.964401,625.659851 183.964584,623.384888 
	C183.974716,500.897491 184.023987,378.410126 184.050217,255.922745 
	C184.050705,253.602325 183.823639,251.281891 183.599731,248.501831 
	C184.073105,248.012787 184.649460,247.983383 185.454987,248.360504 
	C185.452789,249.888489 185.018753,251.010040 185.019226,252.131393 
	C185.039429,299.092438 185.098511,346.053436 185.098969,393.478699 
	C185.081802,401.627075 185.118408,409.311279 185.105576,417.462219 
	C185.090256,424.950500 185.124374,431.972015 185.114578,439.460693 
	C185.092560,449.279938 185.114441,458.631958 185.096664,468.452148 
	C185.076187,478.274353 185.095352,487.628418 185.074371,497.450745 
	C185.053482,508.271698 185.072739,518.624390 185.050323,529.445557 
	C185.027176,542.600403 185.045731,555.286804 185.064285,567.973145 
z"/>
<path fill="#CFB37D" opacity="1.000000" stroke="none" 
	d="
M181.911011,247.368362 
	C182.149124,247.198166 182.588608,247.325195 183.244141,247.731873 
	C183.010925,247.896225 182.561646,247.780914 181.911011,247.368362 
z"/>
<path fill="#FEBF14" opacity="1.000000" stroke="none" 
	d="
M185.152740,393.014465 
	C185.098511,346.053436 185.039429,299.092438 185.019226,252.131393 
	C185.018753,251.010040 185.452789,249.888489 185.886414,248.398956 
	C199.499481,238.855377 212.950775,229.738358 226.310303,220.488785 
	C241.174759,210.197250 255.974030,199.811142 270.759827,189.406769 
	C274.407349,186.840088 277.892731,184.042969 281.733856,181.163254 
	C282.949951,181.440460 284.099487,181.715622 284.742767,182.440247 
	C285.158569,182.908615 284.839355,184.035004 284.839050,184.866516 
	C284.817505,241.582397 284.794922,298.298279 284.378235,355.520569 
	C269.676819,361.342346 255.358368,366.627777 241.065094,371.980469 
	C222.417191,378.963928 203.789261,386.000671 185.152740,393.014465 
z"/>
<path fill="#AA802A" opacity="1.000000" stroke="none" 
	d="
M185.445648,567.958130 
	C185.045731,555.286804 185.027176,542.600403 185.440765,529.446655 
	C187.491516,528.626160 189.184616,528.470093 190.717453,527.890320 
	C210.962234,520.232727 231.156860,512.441833 251.423386,504.842590 
	C262.469574,500.700714 273.628174,496.858673 284.736084,492.881409 
	C284.799988,504.187958 284.802917,515.495422 284.968750,526.800476 
	C285.012665,529.794250 283.730682,531.197449 280.999146,532.227600 
	C255.347763,541.901550 229.752747,551.724792 204.116898,561.440186 
	C198.067596,563.732727 191.926086,565.781921 185.445648,567.958130 
z"/>
<path fill="#B78929" opacity="1.000000" stroke="none" 
	d="
M284.776520,492.424866 
	C273.628174,496.858673 262.469574,500.700714 251.423386,504.842590 
	C231.156860,512.441833 210.962234,520.232727 190.717453,527.890320 
	C189.184616,528.470093 187.491516,528.626160 185.482452,528.978149 
	C185.072739,518.624390 185.053482,508.271698 185.448395,497.431702 
	C190.556015,495.304993 195.286987,493.764984 199.936829,492.010040 
	C228.201096,481.342194 256.446869,470.625336 284.698853,459.924866 
	C284.738220,470.606018 284.777588,481.287140 284.776520,492.424866 
z"/>
<path fill="#C49327" opacity="1.000000" stroke="none" 
	d="
M284.738892,459.463470 
	C256.446869,470.625336 228.201096,481.342194 199.936829,492.010040 
	C195.286987,493.764984 190.556015,495.304993 185.488541,496.963440 
	C185.095352,487.628418 185.076187,478.274353 185.449707,468.382050 
	C206.954163,459.868744 228.050476,451.852448 249.183777,443.934814 
	C260.983826,439.513885 272.845276,435.256897 284.679047,430.926025 
	C284.712341,440.284698 284.745636,449.643372 284.738892,459.463470 
z"/>
<path fill="#D29D26" opacity="1.000000" stroke="none" 
	d="
M284.718231,430.464478 
	C272.845276,435.256897 260.983826,439.513885 249.183777,443.934814 
	C228.050476,451.852448 206.954163,459.868744 185.489349,467.913910 
	C185.114441,458.631958 185.092560,449.279938 185.484619,439.435791 
	C190.588135,437.299652 195.313400,435.750214 199.961411,433.995972 
	C228.209961,423.334442 256.440918,412.626282 284.677734,401.933655 
	C284.704315,411.290070 284.730865,420.646515 284.718231,430.464478 
z"/>
<path fill="#EEB21B" opacity="1.000000" stroke="none" 
	d="
M185.098969,393.478699 
	C203.789261,386.000671 222.417191,378.963928 241.065094,371.980469 
	C255.358368,366.627777 269.676819,361.342346 284.346985,355.984314 
	C284.725006,363.634033 284.740082,371.326416 284.361694,379.524292 
	C272.306030,384.355408 260.632355,388.650330 248.984207,393.013489 
	C227.699844,400.986176 206.430588,408.999237 185.155029,416.995483 
	C185.118408,409.311279 185.081802,401.627075 185.098969,393.478699 
z"/>
<path fill="#E1AA1F" opacity="1.000000" stroke="none" 
	d="
M185.105576,417.462250 
	C206.430588,408.999237 227.699844,400.986176 248.984207,393.013489 
	C260.632355,388.650330 272.306030,384.355408 284.328369,379.988007 
	C284.708008,386.966980 284.727539,393.987640 284.712402,401.471008 
	C256.440918,412.626282 228.209961,423.334442 199.961411,433.995972 
	C195.313400,435.750214 190.588135,437.299652 185.528534,438.968628 
	C185.124374,431.972015 185.090256,424.950500 185.105576,417.462250 
z"/>
<path fill="#AA802A" opacity="1.000000" stroke="none" 
	d="
M896.934143,530.020935 
	C896.952332,542.708191 896.970459,555.395508 896.946655,568.552063 
	C892.774292,567.898865 888.520020,567.104858 884.533447,565.601135 
	C856.877380,555.169495 829.301086,544.525757 801.626892,534.143005 
	C798.293884,532.892578 796.912109,531.367798 796.992859,527.734253 
	C797.236511,516.769714 797.139160,505.797638 797.589294,494.396790 
	C798.820068,494.100677 799.686462,494.103790 800.445251,494.391052 
	C823.085571,502.963013 845.684143,511.646149 868.361450,520.118896 
	C877.801147,523.645752 887.404968,526.733521 896.934143,530.020935 
z"/>
<path fill="#B78929" opacity="1.000000" stroke="none" 
	d="
M896.964783,529.551025 
	C887.404968,526.733521 877.801147,523.645752 868.361450,520.118896 
	C845.684143,511.646149 823.085571,502.963013 800.445251,494.391052 
	C799.686462,494.103790 798.820068,494.100677 797.635132,493.922821 
	C797.247803,482.870728 797.229126,471.860870 797.608032,460.433380 
	C814.024658,466.020233 830.039734,472.035339 846.063843,478.026367 
	C863.022705,484.366852 879.990112,490.684479 896.953857,497.012085 
	C896.967712,507.701752 896.981567,518.391418 896.964783,529.551025 
z"/>
<path fill="#C49327" opacity="1.000000" stroke="none" 
	d="
M896.973755,496.542664 
	C879.990112,490.684479 863.022705,484.366852 846.063843,478.026367 
	C830.039734,472.035339 814.024658,466.020233 797.654724,459.961304 
	C797.277527,450.232330 797.251221,440.557800 797.606812,430.512695 
	C820.069214,438.463226 842.134705,446.824371 864.236572,455.088409 
	C875.114014,459.155609 886.058716,463.042999 896.973022,467.011780 
	C896.979919,476.698914 896.986877,486.386047 896.973755,496.542664 
z"/>
<path fill="#D29D26" opacity="1.000000" stroke="none" 
	d="
M896.984009,466.542053 
	C886.058716,463.042999 875.114014,459.155609 864.236572,455.088409 
	C842.134705,446.824371 820.069214,438.463226 797.653259,430.043030 
	C797.281860,420.924500 797.245911,411.905121 797.260742,402.415222 
	C825.553040,412.635376 853.794983,423.324890 882.035339,434.018463 
	C885.138611,435.193573 888.148865,436.759796 891.351440,437.492523 
	C895.971008,438.549469 897.361694,441.050598 897.097839,445.650574 
	C896.708435,452.437439 896.995789,459.263123 896.984009,466.542053 
z"/>
<path fill="#EEB21B" opacity="1.000000" stroke="none" 
	d="
M896.947632,396.971680 
	C896.960693,401.963013 897.025330,406.954926 896.972595,411.945557 
	C896.918640,417.050507 896.105225,417.696106 891.408264,415.936646 
	C875.530579,409.989105 859.687012,403.950226 843.839417,397.922729 
	C829.390015,392.427063 814.954956,386.893799 800.501892,381.407867 
	C799.742310,381.119568 798.873596,381.118683 797.683472,380.960632 
	C797.275696,374.258209 797.240234,367.579193 797.611938,360.468872 
	C812.337830,365.354797 826.664734,370.650055 840.973206,375.994537 
	C859.638977,382.966522 878.290161,389.977509 896.947632,396.971680 
z"/>
<path fill="#F7BB14" opacity="1.000000" stroke="none" 
	d="
M896.958252,396.511475 
	C878.290161,389.977509 859.638977,382.966522 840.973206,375.994537 
	C826.664734,370.650055 812.337830,365.354797 797.656250,360.000305 
	C797.263000,356.275360 797.232605,352.587738 797.244873,348.440338 
	C803.444824,349.950653 809.698547,351.664215 815.742493,353.935760 
	C840.512939,363.245117 865.215210,372.735901 889.957642,382.120056 
	C891.971191,382.883759 894.098877,383.346405 896.552856,383.971069 
	C896.944397,388.012573 896.956604,392.031952 896.958252,396.511475 
z"/>
</svg>